<svg width="287" height="312" viewBox="0 0 287 312" fill="none" xmlns="http://www.w3.org/2000/svg">
<path d="M5.17432 307.32C42.5422 317.542 82.0965 308.001 120.827 306.865C138.546 306.354 156.293 307.604 173.983 308.512C201.952 309.932 229.978 310.5 257.975 311.04C266.494 311.21 275.296 311.324 283.162 308.03C285.036 307.235 287.137 305.673 286.626 303.685C286.115 301.612 283.361 301.3 281.231 301.414C243.579 303.288 205.899 301.755 168.276 300.079C130.482 298.404 92.6026 296.615 54.7804 298.006C44.615 298.375 34.3361 299.767 24.199 299.682C17.0151 299.653 9.37679 300.59 5.17432 307.32Z" fill="url(#paint0_linear)"/>
<path d="M5.17432 307.32C42.5422 317.542 82.0965 308.001 120.827 306.865C138.546 306.354 156.293 307.604 173.983 308.512C201.952 309.932 229.978 310.5 257.975 311.04C266.494 311.21 275.296 311.324 283.162 308.03C285.036 307.235 287.137 305.673 286.626 303.685C286.115 301.612 283.361 301.3 281.231 301.414C243.579 303.288 205.899 301.755 168.276 300.079C130.482 298.404 92.6026 296.615 54.7804 298.006C44.615 298.375 34.3361 299.767 24.199 299.682C17.0151 299.653 9.37679 300.59 5.17432 307.32Z" fill="url(#paint1_linear)"/>
<path d="M99.8437 106.084C99.361 107.362 98.85 108.639 97.9697 109.69C97.0043 110.826 95.6414 111.536 94.3068 112.217C84.4537 117.3 74.6006 122.354 64.7475 127.437C63.5265 125.307 62.3055 123.149 61.0562 121.02C68.7228 115.199 76.361 109.406 84.0277 103.585C84.9647 102.875 85.9019 102.166 86.6686 101.285C87.8328 99.9223 88.5425 98.2185 89.1956 96.5432C93.0289 87.0308 96.834 77.4901 100.667 67.9777C102.002 64.6271 103.507 61.0778 106.488 59.0334C109.271 57.1309 114.638 57.1309 115.972 60.8223C117.335 64.5988 113.559 70.5902 112.252 73.9692C108.107 84.6458 103.961 95.3791 99.8437 106.084Z" fill="#00719A"/>
<path d="M68.4384 129.765C63.4977 124.342 48.562 123.519 43.1953 128.914C35.7274 136.41 49.5841 141.294 54.7804 142.657C59.1532 143.821 60.8286 136.666 56.5977 136.069C54.2125 135.728 51.7705 135.416 49.4421 134.763C47.568 134.252 45.8644 133.258 48.4199 131.64C49.4989 130.958 52.0546 131.128 53.304 131.043C58.1595 130.759 63.3274 132.151 68.041 131.242C68.7225 131.128 68.8643 130.22 68.4384 129.765Z" fill="#404040"/>
<path d="M91.4675 295.905C98.2256 290.056 102.939 282.332 104.245 272.791C107.113 251.552 96.749 229.461 77.4119 218.869C62.5329 210.72 41.4638 206.659 25.3638 215.036C-3.85476 230.227 -9.16468 279.436 16.4477 299.142C35.9835 314.106 72.0737 312.687 91.4675 295.905Z" fill="#333333"/>
<path d="M87.9752 291.22C94.1654 285.91 98.5383 278.953 99.7593 270.349C102.485 251.211 93.0864 231.363 75.4531 221.907C61.8803 214.638 42.6284 211.089 27.863 218.67C1.05802 232.47 -4.0247 276.823 19.3444 294.428C37.1481 307.859 70.1715 306.439 87.9752 291.22Z" fill="#404040"/>
<path d="M129.8 188.742C125.058 188.912 120.629 190.332 116.455 192.547C115.773 192.916 115.035 193.342 114.694 194.052C114.353 194.733 114.382 195.557 114.438 196.323C114.836 202.173 115.234 208.022 115.631 213.9C115.943 218.585 116.284 223.299 117.164 227.956C117.988 232.357 120.117 236.077 121.111 240.336C123.44 250.302 126.648 260.042 129.857 269.725C131.419 269.554 132.952 269.384 134.514 269.213C134.514 269.213 132.271 256.805 132.1 256.01C131.532 253.085 130.34 250.444 129.829 247.435C129.232 244.027 128.778 240.62 128.352 237.184C127.926 233.777 127.472 230.369 127.756 226.962C127.926 224.861 128.38 222.759 128.835 220.715C131.078 210.407 133.321 200.072 135.564 189.764C133.747 188.941 131.788 188.685 129.8 188.742Z" fill="#DDD2C7"/>
<path d="M124.434 121.02C123.809 121.73 122.958 122.979 122.844 123.945C120.033 145.922 116.256 170.456 113.474 192.433C121.339 194.677 129.517 195.926 137.695 196.125C152.034 169.661 166.658 142.373 170.576 112.359C155.498 115.767 140.449 119.174 125.371 122.582C124.406 122.78 125.087 120.253 124.434 121.02Z" fill="#737373"/>
<path d="M248.663 247.633C246.732 240.762 242.785 234.685 236.339 230.454C222 220.999 202.606 220.743 188.465 230.937C177.561 238.774 167.538 252.461 168.134 266.914C169.213 293.151 202.833 314.078 225.662 302.55C243.04 293.747 254.228 267.368 248.663 247.633Z" fill="#333333"/>
<path d="M244.886 248.741C243.183 242.522 239.662 237.042 233.926 233.237C221.148 224.719 203.827 224.52 191.163 233.748C181.423 240.847 172.45 253.227 172.933 266.261C173.842 289.971 203.827 308.796 224.215 298.347C239.775 290.396 249.799 266.545 244.886 248.741Z" fill="#404040"/>
<path d="M212.515 255.982C212.288 255.925 212.061 255.868 211.834 255.783C204.394 253.17 196.33 254.761 188.606 255.101C179.293 255.527 169.724 251.041 160.439 250.927C152.573 250.842 148.257 248.4 147.434 241.216C147.064 238.036 145.56 234.969 145.105 231.732C144.906 230.341 142.805 227.274 141.584 224.889C140.761 223.299 139.398 222.049 137.694 221.51C130.794 219.295 126.308 218.841 119.01 215.206C112.593 212.026 106.46 208.335 99.9856 205.24C93.5399 202.145 86.1571 199.078 85.4756 190.503C85.3336 188.77 85.5608 187.038 86.0719 185.391C88.2016 178.605 93.909 174.261 99.9856 171.307C113.7 164.663 129.46 164.265 144.651 163.3C154.078 162.704 164.442 162.136 173.33 158.7C176.482 157.479 182.615 151.261 177.22 148.932C174.551 147.796 167.055 150.38 164.158 150.835C159.644 151.544 155.157 152.311 150.642 153.049C132.242 156.116 113.814 159.24 95.2151 160.801C84.2262 161.71 72.1867 162.505 64.1793 170.086C55.4904 178.293 54.5819 192.291 58.7843 203.479C58.8127 203.564 58.8694 203.649 58.8978 203.735C59.267 206.035 60.2039 208.164 61.4817 209.414C61.7089 209.641 61.9929 209.868 62.22 210.095C63.0435 211.259 63.9521 212.338 65.0311 213.275C66.1669 214.269 67.4165 215.064 68.751 215.746C73.0955 219.21 77.6671 222.419 82.2387 225.57C97.7424 236.275 113.246 247.009 128.75 257.714C132.526 260.326 136.445 262.995 140.931 263.989C145.872 265.096 151.011 264.046 156.009 263.251C171.541 260.752 187.329 260.553 203.088 260.525C206.439 261.632 209.818 262.74 213.168 263.875C211.919 261.547 213.878 258.225 212.515 255.982Z" fill="#EBEBEB"/>
<path d="M59.1252 139.022C58.7845 136.921 52.6511 137.801 52.3388 139.846C50.9758 149.358 51.5721 170.711 51.4585 180.138C51.3165 189.935 51.1746 199.731 51.1178 209.556C50.9758 228.24 50.1807 247.122 41.3215 266.232C39.7029 269.696 50.5782 269.753 52.14 266.317C60.7437 247.122 61.2548 228.211 60.9992 209.499C60.8572 199.759 60.5733 190.02 60.3178 180.252C60.0338 170.484 60.6869 148.648 59.1252 139.022Z" fill="#EBEBEB"/>
<path d="M114.127 273.842C113.616 274.751 113.871 275.83 115.689 276.937C120.743 279.975 127.444 279.777 132.328 276.454C133.151 275.886 133.947 275.233 134.855 274.807C136.559 273.984 138.831 273.842 139.711 272.138C140.648 270.349 139.427 268.191 138.234 266.573C137.184 265.153 136.644 263.819 134.713 264.5C131.164 265.778 127.615 267.027 124.264 268.759C122.106 269.867 119.976 271.173 117.648 271.741C116.2 272.081 114.695 272.848 114.127 273.842Z" fill="#3D322B"/>
<path d="M147.15 255.045C146.752 253.852 146.014 252.801 144.906 252.092C140.96 249.564 135.025 249.564 132.242 253.994C129.261 258.736 130.681 265.182 135.508 267.794C137.524 268.901 140.306 269.895 142.606 269.356C145.219 268.759 146.951 266.914 148.342 264.614C150.415 261.178 149.365 257.714 147.15 255.045Z" fill="#4D4D4D"/>
<path d="M144.452 230.738C141.613 233.379 138.915 236.275 136.842 239.569C135.991 240.904 137.95 242.465 138.972 241.216C141.386 238.291 143.828 235.537 146.781 233.124C148.484 231.761 146.128 229.205 144.452 230.738Z" fill="#4D4D4D"/>
<path d="M136.928 239.853C137.354 246.526 138.575 253.17 139.711 259.73C140.052 261.774 143.203 260.894 142.834 258.878C141.613 252.461 140.761 245.901 139.455 239.512C139.171 238.093 136.843 238.377 136.928 239.853Z" fill="#4D4D4D"/>
<path d="M135.366 265.324C134.713 267.567 134.401 269.895 134.145 272.223C133.918 274.126 134.259 276.824 133.662 278.84C131.05 278.641 128.523 278.556 125.939 277.874C123.014 277.108 121.765 281.821 124.689 282.559C128.182 283.44 131.93 284.036 135.48 283.156C136.332 282.957 137.013 282.02 136.985 281.083C136.899 278.896 137.354 276.596 137.439 274.382C137.552 271.599 137.978 268.901 138.376 266.176C138.631 264.188 135.962 263.307 135.366 265.324Z" fill="#4D4D4D"/>
<path d="M35.5288 260.723C35.614 263.563 36.2955 266.459 37.9992 268.759C39.4473 270.718 41.6054 272.081 43.9054 272.877C47.8239 274.24 52.2819 273.899 55.9449 271.968C59.6078 270.037 62.4189 266.573 63.5547 262.598C63.8955 261.377 64.0942 260.099 63.8386 258.849C62.5892 252.404 54.014 246.384 47.6252 246.412C40.1856 246.412 35.3301 253.965 35.5288 260.723Z" fill="#EBEBEB"/>
<path d="M194.911 265.21C194.996 268.049 195.678 270.946 197.382 273.246C198.83 275.205 200.988 276.568 203.288 277.363C207.206 278.726 211.664 278.385 215.327 276.454C218.99 274.524 221.801 271.059 222.937 267.084C223.278 265.863 223.477 264.585 223.221 263.336C221.972 256.89 213.396 250.87 207.007 250.899C199.568 250.899 194.712 258.452 194.911 265.21Z" fill="#EBEBEB"/>
<path d="M127.869 234.458C131.163 233.152 133.974 230.511 135.536 227.217C126.535 217.591 117.477 206.432 112.281 193.995C111.713 192.661 111.23 191.156 111.628 189.764C112.025 188.401 113.161 187.408 114.268 186.556C115.944 185.25 124.462 180.706 124.207 178.946C123.979 177.384 118.954 174.545 117.676 173.551C114.978 171.449 113.133 170.399 109.839 169.462C109.441 169.348 109.044 169.235 108.646 169.32C108.305 169.405 108.021 169.604 107.737 169.803C104.131 172.529 101.32 176.248 99.2758 180.366C98.3388 182.268 97.5437 184.313 97.3165 186.442C96.5499 193.427 102.484 198.482 106.403 203.224C111.514 209.414 116.256 215.916 120.998 222.419C123.781 226.167 126.535 230 127.869 234.458Z" fill="#EADDD0"/>
<path d="M167.622 113.524C170.66 112.672 173.812 114.319 174.863 117.385C179.605 131.214 176.368 147.995 166.344 158.7C160.921 164.493 153.964 168.44 147.121 172.301C139.738 176.476 132.327 180.65 124.944 184.824C120.912 179.258 116.057 174.317 110.661 170.228C109.98 169.717 109.27 169.178 108.929 168.354C108.333 166.85 109.299 165.203 110.236 163.896C114.864 157.451 120.089 151.403 123.808 144.361C127.557 137.319 129.743 128.97 127.755 121.275C141.215 119.799 154.532 117.187 167.622 113.524Z" fill="#6B6B6B"/>
<path d="M120.572 243.488C120.487 244.538 121.169 245.39 123.27 245.532C129.091 245.93 135.082 242.664 138.092 237.439C138.603 236.559 139.058 235.594 139.682 234.799C140.875 233.294 142.862 232.101 142.976 230.17C143.09 228.126 141.074 226.763 139.313 225.854C137.78 225.059 136.729 224.122 135.281 225.599C132.612 228.353 129.914 231.136 127.614 234.231C126.109 236.219 124.746 238.377 122.872 239.967C121.708 240.96 120.658 242.352 120.572 243.488Z" fill="#3D322B"/>
<path d="M68.6385 148.45C62.7039 148.733 56.6558 149.131 50.6928 148.904C49.3298 148.847 47.9669 148.762 46.6039 148.648C42.6854 148.875 38.8237 145.241 43.6793 141.89C45.525 139.931 51.9991 141.266 54.1855 141.777C57.8201 142.629 59.3817 137.035 55.7188 136.183C48.3361 134.451 29.8224 135.899 35.2459 148.052C40.2434 159.296 60.6595 154.157 68.9792 150.863C70.1434 150.38 70.115 148.393 68.6385 148.45Z" fill="#404040"/>
<path d="M87.8901 69.5112C93.5691 74.7643 94.9037 77.5753 98.5667 84.5037C101.151 89.416 103.167 94.6408 105.836 99.4964C109.612 106.396 114.638 112.444 119.636 118.464C121.283 120.424 122.958 122.44 125.173 123.661C126.735 124.512 128.495 124.938 130.256 125.222C146.526 127.835 162.938 122.184 177.902 129.141C182.247 108.157 164.216 90.2396 152.006 74.8495C150.018 72.3507 148.372 69.8803 146.015 67.7223C143.544 65.4507 141.017 63.2926 138.376 61.2481C133.209 57.216 127.728 53.6099 121.993 50.4865C114.468 46.3692 106.404 44.6654 99.2482 50.7988C93.8531 55.3988 89.6222 62.5544 87.8901 69.5112Z" fill="#066984"/>
<path d="M68.6099 24.8174C66.4518 27.4865 66.7642 31.3766 67.3889 34.7272C67.9852 38.0778 68.7802 41.4284 70.5407 44.2963C71.7617 46.284 73.4087 47.9308 75.084 49.5209C77.2137 51.5654 79.6556 53.3544 81.6433 55.5124C83.4322 57.4149 84.8235 58.9766 87.6346 59.2037C88.3161 59.2605 89.026 59.2321 89.6791 59.0334C91.2409 58.5223 92.3481 57.0741 93.2568 55.6543C94.7049 53.326 96.6075 51.1963 97.0902 48.4987C97.6013 45.8296 96.0395 43.3309 95.9828 40.7754C95.926 38.447 96.579 36.3457 95.9543 33.9889C95.6136 32.6827 94.989 31.4901 94.2507 30.3827C90.5309 24.9024 83.858 22.2049 77.3272 21.8926C74.2037 21.7506 70.6543 22.2902 68.6099 24.8174Z" fill="#EADDD0"/>
<path d="M61.2268 136.012C57.1663 134.82 53.5317 132.179 51.1182 128.63C71.591 106.198 88.912 80.926 106.148 55.7964C109.555 56.6482 113.076 57.5568 115.916 59.6865C118.755 61.8161 120.8 65.4506 120.061 69.0568C119.465 71.8963 117.335 74.1111 115.319 76.1556C96.4082 95.237 78.349 115.227 61.2268 136.012Z" fill="#00719A"/>
<path d="M47.541 131.867C44.9286 132.435 42.2879 133.002 39.9311 134.252C39.1361 134.678 38.3693 135.189 37.915 135.927C37.4323 136.665 37.3188 137.716 37.8299 138.454C38.9373 140.073 41.8052 139.107 43.1398 140.527C43.4521 140.868 43.6508 141.322 43.9632 141.663C44.6731 142.373 45.8089 142.401 46.8311 142.344C49.0743 142.259 51.4028 142.146 53.4472 141.209C56.0595 140.016 57.8768 137.631 59.5805 135.302C59.7508 135.047 59.9497 134.791 60.0065 134.507C60.0916 133.996 59.8077 133.485 59.4669 133.088C58.1892 131.469 55.7472 129.964 53.6176 130.106C52.7657 130.163 52.1978 130.617 51.4311 130.93C50.1817 131.412 48.8188 131.583 47.541 131.867Z" fill="#EADDD0"/>
<path d="M62.6471 31.3198C60.7731 28.9914 60.0632 25.6409 60.8582 22.6878C61.6249 19.8199 63.641 17.5199 65.8842 15.7594C68.1274 13.9989 70.6545 12.6927 73.0396 11.0741C76.5322 8.71735 79.6274 5.7358 82.1829 2.29999C82.5237 1.84567 83.0915 1.36295 83.489 1.76048C83.7162 2.86789 83.9435 3.97545 84.1706 5.11125C85.2212 3.71989 86.3286 2.27163 87.8904 1.61854C90.8435 0.312366 94.7051 2.12963 97.2323 0C96.8632 7.95062 93.5409 15.6173 88.515 21.5235C84.8804 25.8112 80.3939 29.1902 75.51 31.689C70.9668 33.9606 66.6224 36.2038 62.6471 31.3198Z" fill="#EDDDB2"/>
<path d="M90.0192 34.784C90.3884 34.0458 90.9279 33.1655 91.8081 33.1939C92.9155 33.2223 93.3415 34.6704 93.0291 35.6643C92.7168 36.6581 92.0069 37.5669 92.1204 38.6175C92.234 39.5261 92.9155 40.2644 93.5118 40.9743C95.7266 43.7002 96.8055 47.1927 96.4648 50.5717C98.3389 45.205 100.809 40.0372 103.819 35.1816C105.125 33.0804 106.545 31.0076 107.227 28.6508C107.823 26.6063 107.88 24.4482 107.709 22.347C107.511 19.905 107.028 17.4064 105.523 15.3903C103.223 12.2953 98.85 10.9323 94.9031 11.3014C90.9278 11.6706 87.3217 13.5162 84.1699 15.7311C81.7279 17.4632 73.4649 23.0286 77.1846 26.7484C79.1439 28.7076 83.0056 27.4582 85.4759 28.5373C88.0599 29.6163 89.9624 32.1433 90.0192 34.784Z" fill="#EDDDB2"/>
<defs>
<linearGradient id="paint0_linear" x1="5.16551" y1="304.748" x2="286.736" y2="304.748" gradientUnits="userSpaceOnUse">
<stop stop-color="#4D4D4D"/>
<stop offset="1"/>
</linearGradient>
<linearGradient id="paint1_linear" x1="5.16551" y1="304.748" x2="286.736" y2="304.748" gradientUnits="userSpaceOnUse">
<stop/>
<stop offset="1"/>
</linearGradient>
</defs>
</svg>
