<svg id="Layer_1" data-name="Layer 1" xmlns="http://www.w3.org/2000/svg" xmlns:xlink="http://www.w3.org/1999/xlink" viewBox="0 0 512 512"><defs><linearGradient id="linear-gradient" x1="309.09" y1="270.45" x2="317.98" y2="100.7" gradientUnits="userSpaceOnUse"><stop offset="0" stop-color="#bbbdbf"/><stop offset="1" stop-color="#f1f1f2"/></linearGradient><linearGradient id="linear-gradient-2" x1="177.79" y1="369.86" x2="177.79" y2="36.87" gradientUnits="userSpaceOnUse"><stop offset="0" stop-color="#e47525"/><stop offset="1" stop-color="#f3bf17"/></linearGradient><linearGradient id="linear-gradient-3" x1="177.94" y1="341.06" x2="177.94" y2="66.13" xlink:href="#linear-gradient-2"/><linearGradient id="linear-gradient-4" x1="284.44" y1="472.73" x2="284.44" y2="211.72" xlink:href="#linear-gradient"/></defs><title>sun_clouds</title><path d="M324.73,100.47a67,67,0,0,0-54.21,24.29c-52.14-1.19-96,28.74-97.47,67.55s40.59,72.29,93.62,74.36c27.55,1.19,52.44-6.52,70.51-19.26,11,13.63,29,23.1,50.07,24,34.37,1.19,63.4-21.33,64.58-50.66.89-29-26.37-53.92-60.73-55.1h-2.37C388.72,131,360.58,101.95,324.73,100.47Z" fill-rule="evenodd" fill="url(#linear-gradient)"/><path d="M324.73,107.28a62.58,62.58,0,0,0-51.84,24c-50.36-1.48-92.14,27.85-93.62,65.77v3.85c3.85-36.14,44.73-63.4,93.32-62.21a63.45,63.45,0,0,1,113.17,39.7h2.37c31.41,1.19,56.88,23.41,58.07,50.36,0-1.19.29-2.37.29-3.85.89-28.44-25.18-52.73-58.06-53.92h-2.37A63.7,63.7,0,0,0,324.73,107.28Z" fill="#f5f5f6" fill-rule="evenodd"/><path d="M332.14,141.35l-34.37,39.4,46.81,23.4-46.81,23.4L332.14,267l-53.33,4.15,16.89,50.66L245,304.88l-4.15,53.33-39.4-34.36-23.7,46.8V320.29H200.6l43-17.48,33.18-33.18L294.22,227V181.34l-17.48-42.66L243.56,105.5,200.6,88H177.79V37.66l23.7,46.81,39.4-34.37L245,103.43,295.7,86.54,278.81,137.2ZM177.79,370.65l-23.4-46.8L115,358.21l-4.15-53.33-51,16.89,17.18-50.66L23.44,267l34.66-39.4L11,204.15l47.1-23.4-34.66-39.4,53.62-4.15L59.88,86.54l51,16.89L115,50.1l39.4,34.37,23.4-46.81V88H155L112.32,105.5,79.14,138.68,61.66,181.34V227l17.48,42.66,33.18,33.18L155,320.29h22.81Z" fill-rule="evenodd" fill="url(#linear-gradient-2)"/><path d="M177.79,341.62c75.84,0,137.76-61.92,137.76-137.46S253.63,66.69,177.79,66.69c-75.54,0-137.46,61.92-137.46,137.46S102.25,341.62,177.79,341.62Z" fill-rule="evenodd" fill="url(#linear-gradient-3)"/><path d="M177.79,75.28c69.32,0,125.61,56,125.61,125.32v3.55c-1.78-67.55-57.47-121.76-125.61-121.76A125.68,125.68,0,0,0,52.18,204.15V200.6C52.18,131.28,108.47,75.28,177.79,75.28Z" fill="#f9d167" fill-rule="evenodd"/><path d="M271.41,213.34a103.4,103.4,0,0,1,82.65,41.18C435.23,255.41,501,304.59,501,364.43c0,60.44-67,109.91-149.31,109.91-42.37,0-80.88-13-107.84-34.07-17.77,20.74-46.51,34.07-78.8,34.07-53.62,0-97.17-36.74-97.17-82.06,0-45,43.55-81.77,97.17-81.77h3.85C170.68,256.59,216,213.34,271.41,213.34Z" fill-rule="evenodd" fill="url(#linear-gradient-4)"/><path d="M271.11,224a99,99,0,0,1,79.4,40c77.62,1.19,141,49.18,141,107.84,0,1.78-.3,3.85-.3,5.63-4.15-56-65.47-100.72-140.72-101.61a98.46,98.46,0,0,0-79.4-40.29c-53,0-96.58,42.36-98.36,94.8H168.9c-48.88,0-89.47,32.88-92.73,74.65a39.84,39.84,0,0,1-.3-5.93c0-44.14,41.77-80.28,93-80.28h3.85C174.53,266.37,218.08,224,271.11,224Z" fill="#f5f5f6" fill-rule="evenodd"/></svg>