<svg width="97" height="208" viewBox="0 0 97 208" fill="none" xmlns="http://www.w3.org/2000/svg">
<path d="M64.0936 206.913C68.0375 206.859 72.0018 206.789 75.9252 206.328C77.1513 206.187 78.6225 205.832 78.9495 204.788C79.2151 203.973 78.5817 203.088 77.7235 202.663C76.8652 202.238 75.8435 202.167 74.8626 202.132C67.0158 201.724 59.1486 201.795 51.3018 201.866C41.1459 201.955 30.9695 202.061 20.834 202.787C18.5658 202.946 15.8072 205.018 18.5862 206.576C20.9566 207.904 25.35 207.214 28.0065 207.231C35.6898 207.267 43.3528 207.196 51.0361 207.107C55.3887 207.036 59.7411 206.966 64.0936 206.913Z" fill="url(#paint0_linear)"/>
<path d="M64.0936 206.913C68.0375 206.859 72.0018 206.789 75.9252 206.328C77.1513 206.187 78.6225 205.832 78.9495 204.788C79.2151 203.973 78.5817 203.088 77.7235 202.663C76.8652 202.238 75.8435 202.167 74.8626 202.132C67.0158 201.724 59.1486 201.795 51.3018 201.866C41.1459 201.955 30.9695 202.061 20.834 202.787C18.5658 202.946 15.8072 205.018 18.5862 206.576C20.9566 207.904 25.35 207.214 28.0065 207.231C35.6898 207.267 43.3528 207.196 51.0361 207.107C55.3887 207.036 59.7411 206.966 64.0936 206.913Z" fill="url(#paint1_linear)"/>
<path d="M30.2743 121.921C32.093 117.459 33.9117 108.128 36.3025 103.86C38.2234 100.425 41.2068 109.19 43.6793 106.02C45.498 103.665 47.6028 101.434 50.2797 99.8055C52.9567 98.1765 56.267 97.2202 59.516 97.6275C64.2364 98.2118 67.9759 101.612 69.7742 105.436C71.5928 109.261 73.9633 108.305 74.1472 112.43C75.2915 137.432 73.575 168.1 65.4216 192.092C64.686 194.235 63.8277 196.466 61.9682 198.024C60.1087 199.582 56.9413 200.184 54.9387 198.767C58.8417 176.847 60.0474 161.761 55.3679 139.964C54.8162 137.361 54.714 132.917 53.5697 132.403C52.6501 131.996 50.5862 132.067 49.3602 132.439C43.8224 153.704 39.245 171.322 33.7073 192.57C33.2782 194.181 32.6448 196.041 30.867 196.643C24.471 198.803 24.8592 193.013 24.6344 189.56C24.3279 184.567 24.0828 179.574 23.9806 174.563C23.7967 164.647 24.2257 154.66 26.1874 144.869C27.1887 139.486 28.1696 127.038 30.2743 121.921Z" fill="#A58C41"/>
<path d="M84.8342 4.82753C84.6912 4.15468 84.6708 3.46413 84.773 2.77357C84.8751 2.10073 85.2429 1.32164 85.999 1.2154C86.7346 1.10916 87.2863 1.76427 87.6132 2.34858C89.0845 5.05767 89.2889 8.19173 89.4728 11.2195C88.3081 11.5028 87.082 11.6268 85.8764 11.5737C85.9786 10.2988 85.7129 9.02392 85.1408 7.89071C84.5278 6.66897 83.506 5.50037 83.7104 4.15468C83.9147 4.15468 84.119 4.13695 84.3029 4.13695C84.4868 4.36714 84.6503 4.59735 84.8342 4.82753Z" fill="#E8DBCE"/>
<path d="M68.5888 57.7703C65.2171 59.2399 61.5593 59.6471 60.3945 55.6986C58.3715 48.8461 65.0537 42.9675 71.6949 40.4886C72.9414 40.0283 74.2083 39.6564 75.4548 39.196C78.9695 37.8857 82.1164 35.9026 84.6503 33.4237C87.7768 30.3605 88.063 28.696 87.5725 24.8183C87.4499 23.7913 85.059 11.1134 85.5903 10.9895C87.1025 10.6353 88.5942 10.2989 90.1064 9.94477C90.229 9.90936 94.3976 23.8445 94.9493 25.0839C96.8089 29.2804 96.7068 32.981 93.9685 37.0713C91.6594 40.5063 88.2264 43.2509 84.8342 45.9246C81.1152 48.8461 77.3961 51.7854 73.6974 54.707C72.4714 55.6455 70.5709 56.9026 68.5888 57.7703Z" fill="#1F375A"/>
<path d="M55.2047 199.228C57.7386 199.051 60.2725 199.139 62.786 199.511C64.7068 200.751 66.832 201.778 69.0594 202.557C69.7133 202.787 70.3875 202.999 70.8575 203.442C71.3275 203.885 71.532 204.628 71.0824 205.089C70.6941 205.496 69.9993 205.531 69.3863 205.549C64.7068 205.585 60.0477 205.248 55.4499 204.522C55.1843 204.487 54.8777 204.434 54.6734 204.257C54.5099 204.115 54.4486 203.92 54.3873 203.743C53.9377 202.22 54.2238 200.538 55.2047 199.228Z" fill="#736357"/>
<path d="M34.3414 199.015C31.8075 198.962 29.2736 199.192 26.8011 199.688C24.962 201.034 22.9186 202.167 20.7526 203.07C20.1191 203.336 19.4651 203.584 19.0156 204.044C18.566 204.504 18.423 205.266 18.9134 205.708C19.3221 206.098 20.0169 206.098 20.63 206.08C25.289 205.885 29.9275 205.301 34.464 204.327C34.7296 204.274 35.0158 204.203 35.2202 204.026C35.3632 203.885 35.4245 203.69 35.4654 203.495C35.8332 201.937 35.4244 200.272 34.3414 199.015Z" fill="#736357"/>
<path d="M49.5243 41.6925C51.629 41.6748 53.5497 40.6124 55.021 39.3021C60.4565 34.4151 60.3135 26.7659 59.7618 19.9843C59.7005 19.2583 59.6392 18.5146 59.1692 17.9126C58.454 16.9918 57.0237 16.7616 55.7567 16.6377C50.3212 16.6377 44.9673 16.8502 39.4909 17.0804C39.0209 17.0981 38.5304 17.1335 38.1831 17.3814C37.7948 17.647 37.6518 18.0896 37.57 18.5146C37.1818 20.4623 37.9175 22.4986 37.8766 24.4994C37.8357 26.5357 37.9379 28.5896 38.3466 30.6082C39.1435 34.5213 41.2279 38.1689 45.1513 40.3999C46.4591 41.1436 47.9712 41.7102 49.5243 41.6925Z" fill="#F0E5D4"/>
<path d="M53.3248 40.9666C51.9762 42.1176 49.9123 42.5426 48.0527 42.2061C46.1932 41.8697 44.6402 40.4885 43.5164 39.1782C44.9876 39.3022 46.7858 40.4354 48.2162 40.7896C50.8318 41.427 53.3657 40.8604 54.367 38.9303C54.7144 39.6386 53.9583 40.4177 53.3248 40.9666Z" fill="#333333"/>
<path d="M58.8631 12.3352C62.1735 14.5485 62.3166 18.7627 61.9897 22.3925C61.8466 23.9683 61.4788 25.8098 59.8441 26.5181C59.9258 24.9068 58.6997 23.4903 57.5554 22.2331C56.7585 21.3655 55.941 20.4802 54.7967 19.9667C51.3637 18.444 47.6446 20.8697 44.1912 21.0645C41.9025 21.2061 41.0852 20.3031 40.2678 22.5342C39.6139 24.3579 39.3891 26.3764 39.3687 28.271C39.3687 28.5189 39.3686 28.7668 39.2256 28.9793C39.0826 29.1917 38.7352 29.298 38.5105 29.1386C38.4287 29.0678 38.3674 28.9793 38.3265 28.873C37.1209 26.341 34.8731 23.6142 34.444 20.9229C33.9127 17.6118 34.4235 14.1059 35.7722 10.9719C36.0378 10.3522 36.5079 9.66158 37.264 9.67929C37.7953 9.69699 38.2039 10.0865 38.6331 10.3698C39.6139 11.0427 40.9421 11.202 42.1886 11.1135C43.4351 11.025 44.6407 10.7239 45.8668 10.5469C48.2577 10.2282 50.4442 10.7063 52.7941 10.7948C54.8785 10.901 57.1058 11.1666 58.8631 12.3352Z" fill="#EFAB50"/>
<path d="M55.4301 43.2861C58.72 40.2582 61.8261 43.6402 63.0318 46.5795C67.9565 58.4606 69.5912 71.1739 71.1851 83.7456C71.4507 85.7642 71.696 87.7827 71.9616 89.7835C72.8812 97.0432 73.8211 104.285 74.7407 111.545C74.802 111.97 65.2182 113.741 64.4008 113.918C59.3944 114.998 54.1836 115.033 49.075 114.75C42.679 114.378 36.3035 113.51 29.887 113.528C27.1488 113.528 24.3697 113.705 21.7133 113.103C22.7554 108.889 22.8372 104.533 23.0415 100.23C23.532 89.819 24.7785 79.4606 26.025 69.12C26.7198 63.3122 27.108 57.3628 28.0276 51.6081C28.518 48.4564 30.1732 42.9496 33.8105 41.5862C37.6727 40.1343 39.573 44.012 42.6995 45.0213C46.2959 46.1899 50.6894 46.3847 53.9589 44.4193C54.5923 44.0474 55.0214 43.6579 55.4301 43.2861Z" fill="#1F375A"/>
<path d="M74.2903 109.154C74.4333 109.137 74.4946 109.066 74.4129 108.924C73.8611 108.074 73.0029 106.534 72.1038 104.71C71.4294 95.6798 70.3872 86.6141 68.5685 77.7254C66.3207 66.7473 61.4778 56.5661 58.5965 45.7828C57.7383 42.6133 53.3654 42.8967 51.751 45.11C51.6284 45.1277 51.5058 45.1631 51.3628 45.1808C49.9732 44.1184 48.2772 43.2331 46.1929 42.5956C43.8634 41.8697 41.4521 43.7466 41.4521 45.712C41.4521 47.8191 41.4113 49.9261 41.35 52.0332C37.304 69.2085 34.8722 86.6672 34.1161 104.179C34.1161 104.197 34.1161 104.214 34.1161 104.232C33.8914 105.135 33.6666 106.038 33.4214 106.923C32.9106 108.287 32.3792 109.827 32.2974 111.031C32.2566 111.155 32.2362 111.262 32.1953 111.386C31.7662 112.926 32.7675 114.254 34.4227 114.767C47.092 118.787 60.6196 118.132 72.7577 113.121C72.9211 113.05 73.0846 112.979 73.2072 112.891C73.3093 112.855 73.4116 112.82 73.5342 112.767C73.7181 112.643 73.9019 112.519 74.1063 112.395C74.5354 112.023 74.8011 111.527 74.8828 111.014C74.985 110.394 74.7807 109.668 74.2903 109.154Z" fill="#F0F0F0"/>
<path d="M11.3729 3.62351C11.516 2.95066 11.5364 2.2601 11.4343 1.56955C11.3321 0.8967 10.9642 0.117658 10.2081 0.0114186C9.47247 -0.0948206 8.92077 0.560293 8.59382 1.14461C7.12252 3.85371 6.91823 6.98778 6.73431 10.0156C7.89909 10.2989 9.12507 10.4228 10.3307 10.3697C10.2285 9.09483 10.4943 7.81998 11.0665 6.68676C11.6795 5.46501 12.7011 4.29641 12.4968 2.95071C12.2924 2.95071 12.0881 2.93299 11.9042 2.93299C11.7203 3.16317 11.5568 3.39333 11.3729 3.62351Z" fill="#E8DBCE"/>
<path d="M27.6183 56.566C30.9899 58.0357 34.6477 58.4429 35.8125 54.4944C37.8355 47.6419 31.1534 41.7634 24.5122 39.2844C23.2657 38.8241 21.9988 38.4522 20.7523 37.9919C17.2376 36.6816 14.0907 34.6985 11.5568 32.2196C8.43033 29.1563 8.14426 27.4919 8.63469 23.6142C8.75729 22.5872 11.1481 9.90929 10.6168 9.78535C9.10462 9.43122 7.61298 9.0948 6.10083 8.74067C5.97823 8.70525 1.80948 22.6403 1.25775 23.8797C-0.601784 28.0762 -0.499527 31.7769 2.23869 35.8671C4.54778 39.3022 7.98071 42.029 11.3728 44.7204C15.0919 47.6419 18.811 50.5812 22.5096 53.5028C23.7357 54.4412 25.6361 55.6984 27.6183 56.566Z" fill="#1F375A"/>
<defs>
<linearGradient id="paint0_linear" x1="17.4307" y1="204.6" x2="79.0182" y2="204.6" gradientUnits="userSpaceOnUse">
<stop stop-color="#4D4D4D"/>
<stop offset="1"/>
</linearGradient>
<linearGradient id="paint1_linear" x1="17.4307" y1="204.6" x2="79.0182" y2="204.6" gradientUnits="userSpaceOnUse">
<stop/>
<stop offset="1"/>
</linearGradient>
</defs>
</svg>
