<svg width="69" height="69" viewBox="0 0 69 69" fill="none" xmlns="http://www.w3.org/2000/svg">
<circle cx="34.5" cy="34.5" r="34" fill="#FF9A04" stroke="#C97902"/>
<path d="M42.1023 47.0058L44.6023 47.0058L44.6023 47.0058L42.1023 47.0058ZM32.4951 29.7129L34.8495 30.5537L34.8495 30.5537L32.4951 29.7129ZM24.2925 56.6129L23.4864 58.9794L23.4864 58.9794L24.2925 56.6129ZM39.6023 47.0058C39.6023 48.4063 40.2382 49.9884 40.7539 51.1631C41.0422 51.8198 41.3636 52.4962 41.6703 53.1383C41.9831 53.7932 42.2794 54.4098 42.5459 54.9999C43.1295 56.2923 43.3684 57.0425 43.3916 57.3636C43.4015 57.5007 43.3285 57.0658 43.7276 56.5811C44.1834 56.0276 44.7219 56.0344 44.6642 56.0344L44.6643 61.0344C45.5673 61.0344 46.7462 60.7809 47.5873 59.7596C48.3717 58.8071 48.4287 57.6967 48.3786 57.0031C48.2817 55.663 47.6399 54.1315 47.1028 52.942C46.8088 52.2912 46.4846 51.6168 46.182 50.9832C45.8733 50.3369 45.5842 49.7274 45.3321 49.1531C45.0784 48.5753 44.8838 48.0815 44.7553 47.672C44.692 47.4701 44.6514 47.3097 44.6275 47.1867C44.603 47.0606 44.6023 47.005 44.6023 47.0058L39.6023 47.0058ZM12.3581 42.3904C13.4699 44.0581 14.9957 45.1666 16.8894 45.3916C18.6618 45.6022 20.3171 44.9813 21.6717 44.191C24.3499 42.6285 26.9533 39.7465 29.0218 37.1598C31.0892 34.5746 33.0052 31.7712 33.9248 30.546C34.1808 30.205 34.3301 30.0235 34.3994 29.9488C34.4478 29.8967 34.3739 29.9873 34.2093 30.1026C34.132 30.1568 33.9073 30.3083 33.5679 30.4103C33.2207 30.5146 32.4939 30.6368 31.7181 30.2199C30.9443 29.8042 30.6459 29.1337 30.5416 28.7923C30.4391 28.4567 30.4401 28.1893 30.442 28.0981C30.4461 27.9034 30.4788 27.8027 30.458 27.8902C30.4259 28.0256 30.3355 28.3268 30.1407 28.872L34.8495 30.5537C35.055 29.9782 35.2239 29.4619 35.3228 29.0449C35.3676 28.8563 35.4338 28.5457 35.441 28.2027C35.4444 28.0372 35.4394 27.711 35.3234 27.3314C35.2057 26.9459 34.8864 26.2462 34.0846 25.8154C33.2807 25.3835 32.5187 25.5047 32.1293 25.6217C31.7476 25.7364 31.4736 25.9143 31.3403 26.0077C31.0637 26.2015 30.8505 26.4226 30.7341 26.5481C30.4737 26.8287 30.1912 27.1912 29.9259 27.5445C28.7609 29.0968 27.1634 31.4779 25.1169 34.0371C23.0715 36.5949 20.9605 38.8172 19.1522 39.8722C18.2636 40.3906 17.7327 40.4566 17.4793 40.4265C17.3472 40.4108 17.0077 40.351 16.5183 39.6169L12.3581 42.3904ZM30.1407 28.872C29.3932 30.9652 28.1876 33.5293 26.8216 36.334C25.4812 39.0864 23.9924 42.0584 22.7886 44.7997C21.6046 47.4962 20.571 50.239 20.266 52.5303C20.1135 53.6761 20.1043 54.968 20.5568 56.1603C21.0589 57.4831 22.0628 58.4945 23.4864 58.9794L25.0986 54.2465C25.062 54.234 25.1032 54.2425 25.1638 54.3014C25.2234 54.3594 25.2386 54.4051 25.2314 54.3861C25.1987 54.2999 25.1204 53.9556 25.2223 53.19C25.4261 51.6585 26.1953 49.4776 27.3667 46.81C28.5184 44.1873 29.9377 41.355 31.3168 38.5233C32.6705 35.7438 33.9958 32.9439 34.8495 30.5537L30.1407 28.872ZM23.4864 58.9794C24.7883 59.4229 26.1115 59.3315 27.2692 59.0494C28.4305 58.7664 29.581 58.2543 30.6572 57.664C32.8024 56.4874 34.9998 54.8031 36.8884 53.2699C38.8833 51.6504 40.4226 50.2985 41.5906 49.4426C42.2439 48.9638 42.3887 48.9461 42.2185 48.992C42.1464 49.0114 41.302 49.241 40.4557 48.6006C39.6004 47.9534 39.6023 47.0708 39.6023 47.0058L44.6023 47.0058C44.6023 46.5405 44.5092 45.3977 43.4728 44.6135C42.4455 43.8361 41.3342 44.052 40.9184 44.164C40.0606 44.395 39.2106 44.9878 38.635 45.4096C37.3449 46.3551 35.4894 47.9654 33.737 49.3881C31.8782 50.8972 29.9757 52.3352 28.2528 53.2801C27.3948 53.7507 26.6693 54.0492 26.0853 54.1915C25.4979 54.3347 25.2069 54.2834 25.0986 54.2465L23.4864 58.9794Z" fill="white"/>
<circle cx="37.6035" cy="16.9033" r="4.48334" fill="white"/>
</svg>
