<svg width="142" height="332" viewBox="0 0 142 332" fill="none" xmlns="http://www.w3.org/2000/svg">
<path d="M102.994 331.53C110.519 331.611 119.1 331.342 123.92 326.869C125.039 325.819 125.91 324.525 125.723 323.178C125.35 320.268 120.779 319.029 117.048 318.544C95.2518 315.742 72.9578 316.82 50.9126 317.951C37.1383 318.652 23.2084 319.352 10.087 322.612C3.2465 324.31 -2.19478 328.728 6.44916 330.668C14.8133 332.554 27.6236 330.749 36.423 330.83C58.5925 331.045 80.7933 331.288 102.994 331.53Z" fill="url(#paint0_linear)"/>
<path d="M102.994 331.53C110.519 331.611 119.1 331.342 123.92 326.869C125.039 325.819 125.91 324.525 125.723 323.178C125.35 320.268 120.779 319.029 117.048 318.544C95.2518 315.742 72.9578 316.82 50.9126 317.951C37.1383 318.652 23.2084 319.352 10.087 322.612C3.2465 324.31 -2.19478 328.728 6.44916 330.668C14.8133 332.554 27.6236 330.749 36.423 330.83C58.5925 331.045 80.7933 331.288 102.994 331.53Z" fill="url(#paint1_linear)"/>
<path d="M36.1434 318.274C37.9779 318.274 39.8436 318.301 41.6781 318.301C41.989 318.301 42.3308 318.301 42.5796 318.113C42.7972 317.924 42.8593 317.655 42.9215 317.385C43.1703 315.715 43.419 314.018 43.6989 312.347C43.6678 312.563 37.5113 311.62 36.7651 312.159C35.3037 313.128 36.1123 316.873 36.1434 318.274Z" fill="#F0E5D4"/>
<path d="M75.2891 318.248C77.0303 318.275 78.7718 318.275 80.5441 318.248C81.1038 318.248 81.7256 318.221 82.1299 317.87C82.5341 317.52 82.5648 316.954 82.5648 316.469C82.5648 315.122 82.5648 313.775 82.5648 312.428C82.5648 312.293 82.5651 312.132 82.4718 311.997C82.3475 311.808 82.0674 311.781 81.8186 311.754C80.4194 311.62 76.253 311.216 75.3202 312.32C74.916 312.778 75.5379 318.275 75.2891 318.248Z" fill="#F0E5D4"/>
<path d="M79.4556 85.1138C85.0835 79.1326 90.2761 85.7335 92.2971 91.4992C100.444 114.751 103.024 139.699 105.543 164.379C105.947 168.339 106.351 172.273 106.756 176.234C108.217 190.459 109.647 204.712 111.109 218.938C111.202 219.773 94.909 223.356 93.5098 223.733C84.9903 225.916 76.1598 226.05 67.4847 225.538C56.6331 224.892 45.8438 223.248 34.9301 223.356C30.2972 223.41 25.5709 223.76 21.0624 222.629C22.928 214.33 23.1147 205.789 23.55 197.33C24.545 176.907 26.8458 156.538 29.1156 136.197C30.3905 124.773 31.1678 113.107 32.7846 101.791C33.6863 95.5945 36.5781 84.7636 42.7657 82.0155C49.3575 79.1057 52.4978 86.7034 57.8147 88.6433C63.8779 90.8795 71.3404 91.2298 76.9372 87.3231C77.9944 86.6226 78.7404 85.8413 79.4556 85.1138Z" fill="#333333"/>
<path d="M27.3444 21.4484C27.6865 20.3438 27.8108 19.1583 27.7175 18.0267C27.6243 16.8952 27.0957 15.575 25.7898 15.3595C24.5149 15.1439 23.4577 16.1946 22.8359 17.1646C19.9131 21.6101 19.167 26.8369 18.4829 31.9021C20.504 32.441 22.6183 32.7374 24.7016 32.7105C24.7016 30.582 25.2923 28.4804 26.4428 26.5945C27.6865 24.6007 29.5831 22.6878 29.3965 20.4247C29.0545 20.3977 28.7126 20.3707 28.3394 20.3438C27.9974 20.694 27.6865 21.0712 27.3444 21.4484Z" fill="#E8DBCE"/>
<path d="M67.9828 96.0793C65.6508 89.0743 47.6167 86.1645 40.8384 83.3624C33.5004 80.3179 26.8774 75.9532 21.5294 70.6456C20.3478 69.4601 19.1973 68.1938 18.5755 66.712C16.8964 62.6975 25.8514 32.1177 25.0741 31.9022L17.3318 29.9084C13.6628 38.8534 9.90041 47.7983 6.32468 56.7702C3.55737 63.6944 -1.23101 70.915 0.292563 78.5128C1.28755 83.3086 7.2575 86.5417 11.2064 90.0173C15.5905 93.897 25.7891 102.707 31.3548 107.638L47.9896 122.214C51.6897 129.38 60.2405 110.251 62.4792 107.799C65.06 104.89 69.2887 100.04 67.9828 96.0793Z" fill="#333333"/>
<path d="M37.4494 247.416C38.5688 227.397 36.2054 206.948 36.4231 186.822C35.6768 179.844 36.8895 172.731 39.9366 166.157C40.1232 165.753 40.3409 165.322 40.714 165.025C41.8955 164.055 43.8855 164.567 45.4091 165.079C60.2406 170.01 77.7773 168.851 91.3029 161.873C93.9769 165.16 94.7541 169.201 95.4071 173.081C96.4642 179.386 97.646 185.663 97.9258 191.995V192.022C97.988 193.369 98.0191 194.743 97.9881 196.09C97.8015 203.984 95.9048 211.744 94.4434 219.503C93.4795 224.568 92.64 229.687 92.5467 234.806C92.4845 239.009 91.7384 240.545 91.0854 246.499C89.935 256.845 89.1887 268.134 87.9761 278.48C86.6702 289.554 85.3952 300.654 84.338 311.754C84.3069 312.185 84.2446 312.643 84.2135 313.075C83.5295 313.236 72.9578 315.203 72.9578 312.967C72.1182 291.413 71.2478 269.859 70.4083 248.305C70.0662 239.225 69.662 230.038 66.8325 221.389C65.6509 221.497 64.5004 221.578 63.3189 221.685C56.8826 250.191 54.426 278.588 47.9897 307.093C47.43 309.599 46.7462 312.32 44.694 313.937C42.6419 315.553 34.8063 315.257 34.1844 312.751C35.9879 291.009 36.2057 269.212 37.4494 247.416Z" fill="#363F4C"/>
<path d="M73.9216 316.119C77.6839 315.85 81.5084 315.984 85.2085 316.523C88.0691 318.382 91.2407 319.918 94.5677 321.077C95.5316 321.427 96.5576 321.75 97.2728 322.397C97.9879 323.043 98.2677 324.148 97.6148 324.849C97.024 325.441 95.9977 325.522 95.096 325.522C88.1311 325.576 81.1664 325.064 74.3259 323.986C73.9217 323.932 73.4864 323.852 73.1754 323.582C72.9267 323.367 72.8334 323.097 72.7401 322.801C72.0249 320.592 72.4602 318.086 73.9216 316.119Z" fill="#736357"/>
<path d="M44.9123 316.281C41.1189 316.227 37.3568 316.55 33.6567 317.278C30.9205 319.271 27.8733 320.969 24.6396 322.316C23.7068 322.693 22.7117 323.07 22.0588 323.771C21.4058 324.471 21.1882 325.576 21.9033 326.249C22.5252 326.815 23.5513 326.842 24.453 326.788C31.4179 326.492 38.3207 325.603 45.099 324.175C45.5032 324.094 45.9385 323.986 46.2183 323.717C46.436 323.501 46.5293 323.205 46.5914 322.936C47.12 320.645 46.498 318.167 44.9123 316.281Z" fill="#736357"/>
<path d="M64.6561 81.8537C67.7965 81.8267 70.6878 80.264 72.8644 78.2972C80.9797 71.0227 80.7311 59.5991 79.9537 49.4956C79.8605 48.4179 79.7671 47.2864 79.0519 46.3973C77.9636 45.0232 75.8496 44.673 73.9529 44.4844C65.8376 44.4844 57.8464 44.8077 49.6688 45.1579C48.9848 45.1849 48.2385 45.2388 47.71 45.589C47.1192 45.9932 46.9325 46.6398 46.8081 47.2595C46.2484 50.1692 47.3368 53.2137 47.2746 56.1774C47.2124 59.2219 47.3678 62.2934 47.9897 65.284C49.1712 71.1306 52.2806 76.5729 58.1262 79.8868C60.085 81.0184 62.3241 81.8537 64.6561 81.8537Z" fill="#F0E5D4"/>
<path d="M98.6402 172.596C98.8579 172.569 98.9513 172.488 98.827 172.3C97.9874 171.195 96.6504 169.201 95.2823 166.831C94.2562 155.137 92.6394 143.417 89.8721 131.886C86.4207 117.687 79.0204 104.512 74.6051 90.5292C73.2992 86.434 71.1225 86.407 65.0593 86.6225C62.634 86.5148 61.6081 86.7842 61.4216 86.8111C57.5038 86.6225 58.8409 87.2153 55.6383 86.3801C52.0936 85.4371 48.3933 87.8619 48.3933 90.4214C48.3933 93.1426 48.3313 95.8639 48.238 98.612C42.0505 120.84 38.3191 143.417 37.1686 166.103C37.1686 166.13 37.1686 166.157 37.1686 166.184C36.8266 167.342 36.4847 168.501 36.1115 169.686C35.3342 171.438 34.4947 173.431 34.4015 174.994C34.3393 175.156 34.3082 175.29 34.246 175.452C33.5931 177.446 35.1165 179.17 37.6351 179.844C57.0062 185.044 77.7455 184.208 96.3082 177.715C96.557 177.634 96.8056 177.527 96.9922 177.419C97.1476 177.365 97.3032 177.311 97.4898 177.257C97.7696 177.096 98.0806 176.934 98.3605 176.772C99.0134 176.287 99.4177 175.641 99.542 174.967C99.6975 174.213 99.3865 173.27 98.6402 172.596Z" fill="#80D372"/>
<path d="M57.4421 15.1438C55.2034 15.1438 52.9957 15.1438 50.757 14.9014C49.8242 14.7936 49.7311 15.9521 50.6017 16.1138C52.7783 16.5449 54.9548 17.0029 57.1624 17.2723C58.7792 17.4609 58.9968 15.1438 57.4421 15.1438Z" fill="#666666"/>
<path d="M44.0095 1.13386C43.7297 1.94214 43.7294 2.80426 43.6983 3.61253C43.6672 4.50164 43.4496 5.49856 43.7294 6.36073C43.8538 6.79181 44.6001 7.11505 44.9421 6.63009C45.4396 5.87569 45.5329 4.98664 45.7506 4.15142C45.9682 3.23537 46.2792 2.29236 46.217 1.34937C46.1548 0.352493 44.3205 0.190874 44.0095 1.13386Z" fill="#666666"/>
<path d="M53.9912 5.09445C52.9341 5.60636 52.0322 6.30685 51.0994 7.00735C50.2909 7.62703 49.4205 8.19283 48.923 9.02805C48.6742 9.40524 49.1717 9.89023 49.6381 9.80941C50.5709 9.64775 51.3484 9.16272 52.1257 8.73164C53.1829 8.1389 54.3333 7.60007 55.2039 6.81874C56.0745 6.06434 55.2661 4.50172 53.9912 5.09445Z" fill="#666666"/>
<path d="M115.618 99.8783C113.006 97.2649 88.6599 78.001 81.4773 88.4547C78.1503 93.3313 85.2707 97.3727 88.9087 100.552C94.5366 105.455 100.196 110.359 105.824 115.263C111.669 120.355 117.546 125.447 121.868 131.078C127.184 137.975 130.139 145.627 130.574 153.656C130.636 154.733 130.667 155.838 131.507 156.727C132.377 157.616 134.305 158.182 136.388 157.805C139.809 157.158 140.99 154.787 141.208 152.982C143.633 133.152 131.227 115.613 115.618 99.8783Z" fill="#333333"/>
<path d="M132.223 158.02C131.943 159.394 130.886 160.741 131.445 162.062C131.756 162.816 132.596 163.409 132.72 164.19C132.813 164.729 132.534 165.241 132.596 165.78C132.658 166.453 133.249 167.019 133.933 167.342C134.617 167.666 135.425 167.747 136.202 167.747C137.011 167.773 137.851 167.72 138.504 167.342C139.125 166.992 139.498 166.426 139.778 165.834C140.369 164.54 140.4 163.085 140.151 161.711C139.903 160.337 139.374 159.017 138.846 157.697C138.69 157.347 138.534 156.969 138.192 156.727C137.913 156.538 137.54 156.484 137.166 156.431C136.047 156.296 134.866 156.323 133.746 156.458C132.316 156.673 132.44 156.889 132.223 158.02Z" fill="#F0E5D4"/>
<path d="M32.0078 10.9678C32.6608 9.72849 33.376 8.35439 34.6197 7.65389C36.05 6.81867 37.6359 7.16892 38.9729 7.65389C40.4965 8.21968 41.9575 8.89327 43.3256 9.70155C43.9164 10.0518 45.3159 10.8331 45.5335 11.4798C45.8445 12.4228 45.0361 13.4196 44.4453 14.4165C40.7763 20.3169 37.9777 25.3552 34.3087 30.609C33.8112 31.3364 33.1893 32.1447 32.3498 32.3602C31.8212 32.4949 31.3238 32.3602 30.8574 32.2255C28.3699 31.4172 20.752 29.1271 23.084 25.2205C25.9757 20.3978 29.396 15.9522 32.0078 10.9678Z" fill="#3D3D3D"/>
<path d="M33.4068 10.1596C33.7177 9.72854 34.0909 9.27059 34.5883 9.05505C35.148 8.81257 35.7389 8.97422 36.2364 9.13587C38.3507 9.83638 40.3717 10.7793 42.3617 11.6954C42.6726 11.8301 43.4811 12.2073 43.6366 12.5306C43.761 12.7192 43.9786 13.0695 43.9786 13.3119C43.9786 14.1472 43.2013 14.8477 42.8282 15.6829C42.4861 16.4373 41.8641 17.057 41.4599 17.7844C41.0245 18.5658 40.496 19.347 39.9986 20.1014C39.2834 21.233 38.5681 22.3916 37.9152 23.5771C37.4488 24.4123 36.9203 25.2475 36.5161 26.1097C36.3296 26.5138 36.0497 26.918 35.6765 27.1605C35.148 27.5377 34.6193 27.5107 34.0907 27.349C33.0647 27.0526 32.1008 26.5947 31.168 26.1366C29.7688 25.4631 28.3696 24.7895 26.9393 24.1159C26.4418 23.8735 25.2913 23.5232 25.509 22.7418C25.6022 22.3108 26.0998 21.7989 26.3485 21.4217C26.6906 20.9098 27.0326 20.3709 27.3435 19.859C28.6495 17.7844 29.8311 15.6559 31.137 13.5544C31.8522 12.3959 32.5984 11.2643 33.4068 10.1596Z" fill="white"/>
<path d="M41.6143 10.1328C41.4899 10.025 41.3033 9.94414 41.1478 9.86332C40.7747 9.70166 40.3705 9.51306 39.9974 9.3514C39.7797 9.24363 39.469 9.13584 39.3757 9.24361C39.3135 9.29749 39.3442 9.37834 39.4064 9.43223C39.6241 9.75554 41.4586 10.6985 41.7696 10.4561C41.8006 10.3752 41.7387 10.2405 41.6143 10.1328Z" fill="#5E625E"/>
<path d="M39.1895 9.05504C39.1895 8.97421 39.0965 8.89331 39.0032 8.89331C38.9099 8.89331 38.8164 8.94724 38.7231 9.02807C38.6609 9.08196 38.6297 9.13586 38.6297 9.21669C38.6297 9.3514 38.7854 9.43216 38.9098 9.40522C39.0342 9.37828 39.1585 9.24361 39.1895 9.10889V9.05504Z" fill="#5E625E"/>
<path d="M28.5246 27.0525C28.2448 27.1063 27.9961 27.268 27.8095 27.4835C27.7163 27.5913 27.6229 27.6991 27.5607 27.8068C27.4053 28.1032 27.4675 28.4265 27.623 28.6959C27.7784 28.9384 28.0894 29.127 28.3692 29.2078C28.4625 29.2348 28.5245 29.2617 28.6178 29.2348C28.7111 29.2348 28.8044 29.1809 28.8977 29.127C29.2398 28.9384 29.5195 28.6151 29.6128 28.2648C29.8305 27.6451 29.2709 26.8908 28.5246 27.0525Z" fill="#EBEFEB"/>
<path d="M82.7514 42.8948C82.4404 41.4399 82.005 39.9849 81.01 38.7995C79.8906 37.4254 78.0875 36.5633 76.2219 36.0783C74.3562 35.6203 72.3974 35.5125 70.4697 35.4586C62.1366 35.2431 53.3994 35.8897 46.3101 39.7155C45.8748 39.958 45.4394 40.2005 45.1285 40.5507C44.7865 40.901 44.6 41.3591 44.4134 41.7901C43.5428 43.8378 42.6411 45.9123 42.4856 48.0947C42.3613 49.7112 42.61 51.3547 42.8899 52.9713C43.263 55.1267 43.6671 57.2551 44.3201 59.3566C45.4394 63.0208 47.3049 66.5234 49.6369 69.7295C48.1444 66.8467 48.3623 63.5597 48.7043 60.4074C48.8598 58.7909 49.0461 57.2013 49.2327 55.5847C49.4192 53.9412 49.699 52.1361 51.0982 51.0314C52.373 49.9807 54.27 49.7921 56.0112 49.7651C57.7524 49.7382 59.5866 49.8459 61.1724 49.2532L61.67 47.5289C61.6078 48.5258 62.2296 49.4957 63.1313 50.1423C64.033 50.789 65.1213 51.1392 66.2406 51.4086C67.4533 51.705 68.6972 51.9205 69.9409 51.8397C71.1536 51.7588 72.3352 51.3817 73.5479 51.2739C74.7605 51.1661 76.1285 51.3278 76.9058 52.1361C77.6521 52.8905 77.6832 53.9681 77.7143 54.965C77.8075 57.767 78.1186 60.5421 78.6161 63.2902C78.8027 62.9939 79.0201 62.6976 79.2067 62.4281C80.1084 63.2095 79.4864 64.4757 79.0822 65.4995C78.6158 66.6311 78.4914 67.8705 78.678 69.056C79.9839 66.1192 81.2898 63.1825 82.1915 60.111C83.8084 54.48 84.0262 48.5797 82.7514 42.8948Z" fill="#736357"/>
<defs>
<linearGradient id="paint0_linear" x1="1.9773" y1="324.151" x2="125.742" y2="324.151" gradientUnits="userSpaceOnUse">
<stop stop-color="#4D4D4D"/>
<stop offset="1"/>
</linearGradient>
<linearGradient id="paint1_linear" x1="1.9773" y1="324.151" x2="125.742" y2="324.151" gradientUnits="userSpaceOnUse">
<stop/>
<stop offset="1"/>
</linearGradient>
</defs>
</svg>
